<svg width="721" height="137" viewBox="0 0 721 137" fill="none" xmlns="http://www.w3.org/2000/svg">
<rect x="30" y="21" width="40" height="3" fill="#00C9A7"/>
<rect x="30" y="61" width="40" height="3" fill="#FF8066"/>
<rect x="30" y="40" width="40" height="5" fill="#DDDDDD"/>
<path d="M75.0568 26V17.2727H76.1136V21.1591H80.767V17.2727H81.8239V26H80.767V22.0966H76.1136V26H75.0568ZM83.8033 26V19.4545H84.8089V26H83.8033ZM84.3146 18.3636C84.1186 18.3636 83.9496 18.2969 83.8075 18.1634C83.6683 18.0298 83.5987 17.8693 83.5987 17.6818C83.5987 17.4943 83.6683 17.3338 83.8075 17.2003C83.9496 17.0668 84.1186 17 84.3146 17C84.5107 17 84.6783 17.0668 84.8175 17.2003C84.9595 17.3338 85.0305 17.4943 85.0305 17.6818C85.0305 17.8693 84.9595 18.0298 84.8175 18.1634C84.6783 18.2969 84.5107 18.3636 84.3146 18.3636ZM89.293 28.5909C88.8072 28.5909 88.3896 28.5284 88.0401 28.4034C87.6907 28.2812 87.3995 28.1193 87.1665 27.9176C86.9364 27.7188 86.7532 27.5057 86.6168 27.2784L87.418 26.7159C87.5089 26.8352 87.6239 26.9716 87.7631 27.125C87.9023 27.2812 88.0927 27.4162 88.3342 27.5298C88.5785 27.6463 88.8981 27.7045 89.293 27.7045C89.8214 27.7045 90.2575 27.5767 90.6012 27.321C90.945 27.0653 91.1168 26.6648 91.1168 26.1193V24.7898H91.0316C90.9577 24.9091 90.8526 25.0568 90.7163 25.233C90.5827 25.4062 90.3896 25.5611 90.1367 25.6974C89.8867 25.831 89.5487 25.8977 89.1225 25.8977C88.5941 25.8977 88.1197 25.7727 87.6992 25.5227C87.2816 25.2727 86.9506 24.9091 86.7063 24.4318C86.4648 23.9545 86.3441 23.375 86.3441 22.6932C86.3441 22.0227 86.462 21.4389 86.6978 20.9418C86.9336 20.4418 87.2617 20.0554 87.6822 19.7827C88.1026 19.5071 88.5884 19.3693 89.1396 19.3693C89.5657 19.3693 89.9038 19.4403 90.1538 19.5824C90.4066 19.7216 90.5998 19.8807 90.7333 20.0597C90.8697 20.2358 90.9748 20.3807 91.0487 20.4943H91.1509V19.4545H92.1225V26.1875C92.1225 26.75 91.9947 27.2074 91.739 27.5597C91.4862 27.9148 91.1452 28.1747 90.7163 28.3395C90.2901 28.5071 89.8157 28.5909 89.293 28.5909ZM89.2589 24.9943C89.6623 24.9943 90.0032 24.902 90.2816 24.7173C90.56 24.5327 90.7717 24.267 90.9165 23.9205C91.0614 23.5739 91.1339 23.1591 91.1339 22.6761C91.1339 22.2045 91.0629 21.7884 90.9208 21.4276C90.7788 21.0668 90.5685 20.7841 90.2901 20.5795C90.0117 20.375 89.668 20.2727 89.2589 20.2727C88.8327 20.2727 88.4776 20.3807 88.1935 20.5966C87.9123 20.8125 87.7006 21.1023 87.5586 21.4659C87.4194 21.8295 87.3498 22.233 87.3498 22.6761C87.3498 23.1307 87.4208 23.5327 87.5629 23.8821C87.7077 24.2287 87.9208 24.5014 88.2021 24.7003C88.4862 24.8963 88.8384 24.9943 89.2589 24.9943ZM94.9691 22.0625V26H93.9634V17.2727H94.9691V20.4773H95.0543C95.2077 20.1392 95.4379 19.8707 95.7447 19.6719C96.0543 19.4702 96.4663 19.3693 96.9805 19.3693C97.4265 19.3693 97.8171 19.4588 98.1523 19.6378C98.4876 19.8139 98.7475 20.0852 98.9322 20.4517C99.1197 20.8153 99.2134 21.2784 99.2134 21.8409V26H98.2077V21.9091C98.2077 21.3892 98.0728 20.9872 97.8029 20.7031C97.5359 20.4162 97.1651 20.2727 96.6907 20.2727C96.3612 20.2727 96.0657 20.3423 95.8043 20.4815C95.5458 20.6207 95.3413 20.8239 95.1907 21.0909C95.043 21.358 94.9691 21.6818 94.9691 22.0625ZM103.798 26.1364C103.167 26.1364 102.623 25.9972 102.165 25.7188C101.711 25.4375 101.36 25.0455 101.113 24.5426C100.869 24.0369 100.746 23.4489 100.746 22.7784C100.746 22.108 100.869 21.517 101.113 21.0057C101.36 20.4915 101.704 20.0909 102.144 19.804C102.587 19.5142 103.104 19.3693 103.695 19.3693C104.036 19.3693 104.373 19.4261 104.705 19.5398C105.038 19.6534 105.34 19.8381 105.613 20.0938C105.886 20.3466 106.103 20.6818 106.265 21.0994C106.427 21.517 106.508 22.0312 106.508 22.642V23.0682H101.462V22.1989H105.485C105.485 21.8295 105.411 21.5 105.263 21.2102C105.119 20.9205 104.911 20.6918 104.641 20.5241C104.374 20.3565 104.059 20.2727 103.695 20.2727C103.295 20.2727 102.948 20.3722 102.656 20.571C102.366 20.767 102.143 21.0227 101.987 21.3381C101.83 21.6534 101.752 21.9915 101.752 22.3523V22.9318C101.752 23.4261 101.837 23.8452 102.008 24.1889C102.181 24.5298 102.421 24.7898 102.728 24.9688C103.035 25.1449 103.391 25.233 103.798 25.233C104.062 25.233 104.3 25.196 104.513 25.1222C104.729 25.0455 104.915 24.9318 105.072 24.7812C105.228 24.6278 105.349 24.4375 105.434 24.2102L106.406 24.483C106.303 24.8125 106.131 25.1023 105.89 25.3523C105.648 25.5994 105.35 25.7926 104.995 25.9318C104.64 26.0682 104.241 26.1364 103.798 26.1364ZM112.674 20.9205L111.771 21.1761C111.714 21.0256 111.63 20.8793 111.519 20.7372C111.411 20.5923 111.263 20.473 111.076 20.3793C110.888 20.2855 110.648 20.2386 110.356 20.2386C109.955 20.2386 109.621 20.331 109.354 20.5156C109.09 20.6974 108.958 20.929 108.958 21.2102C108.958 21.4602 109.049 21.6577 109.231 21.8026C109.413 21.9474 109.697 22.0682 110.083 22.1648L111.055 22.4034C111.64 22.5455 112.076 22.7628 112.363 23.0554C112.65 23.3452 112.793 23.7187 112.793 24.1761C112.793 24.5511 112.685 24.8864 112.469 25.1818C112.256 25.4773 111.958 25.7102 111.575 25.8807C111.191 26.0511 110.745 26.1364 110.237 26.1364C109.569 26.1364 109.016 25.9915 108.579 25.7017C108.141 25.4119 107.864 24.9886 107.748 24.4318L108.702 24.1932C108.793 24.5455 108.965 24.8097 109.218 24.9858C109.474 25.1619 109.808 25.25 110.219 25.25C110.688 25.25 111.06 25.1506 111.336 24.9517C111.614 24.75 111.754 24.5085 111.754 24.2273C111.754 24 111.674 23.8097 111.515 23.6562C111.356 23.5 111.112 23.3835 110.782 23.3068L109.691 23.0511C109.092 22.9091 108.651 22.6889 108.37 22.3906C108.092 22.0895 107.952 21.7131 107.952 21.2614C107.952 20.892 108.056 20.5653 108.263 20.2812C108.474 19.9972 108.759 19.7741 109.12 19.6122C109.484 19.4503 109.896 19.3693 110.356 19.3693C111.004 19.3693 111.512 19.5114 111.881 19.7955C112.254 20.0795 112.518 20.4545 112.674 20.9205ZM117.154 19.4545V20.3068H113.762V19.4545H117.154ZM114.75 17.8864H115.756V24.125C115.756 24.4091 115.797 24.6222 115.88 24.7642C115.965 24.9034 116.073 24.9972 116.203 25.0455C116.337 25.0909 116.478 25.1136 116.625 25.1136C116.736 25.1136 116.827 25.108 116.898 25.0966C116.969 25.0824 117.026 25.071 117.069 25.0625L117.273 25.9659C117.205 25.9915 117.11 26.017 116.988 26.0426C116.865 26.071 116.711 26.0852 116.523 26.0852C116.239 26.0852 115.961 26.0241 115.688 25.902C115.418 25.7798 115.194 25.5938 115.015 25.3438C114.838 25.0938 114.75 24.7784 114.75 24.3977V17.8864ZM123.968 26.1534C123.553 26.1534 123.176 26.0753 122.838 25.919C122.5 25.7599 122.232 25.5312 122.033 25.233C121.834 24.9318 121.735 24.5682 121.735 24.142C121.735 23.767 121.809 23.4631 121.956 23.2301C122.104 22.9943 122.301 22.8097 122.549 22.6761C122.796 22.5426 123.069 22.4432 123.367 22.3778C123.668 22.3097 123.971 22.2557 124.275 22.2159C124.672 22.1648 124.995 22.1264 125.242 22.1009C125.492 22.0724 125.674 22.0256 125.787 21.9602C125.904 21.8949 125.962 21.7812 125.962 21.6193V21.5852C125.962 21.1648 125.847 20.8381 125.617 20.6051C125.39 20.3722 125.044 20.2557 124.581 20.2557C124.101 20.2557 123.725 20.3608 123.452 20.571C123.179 20.7812 122.988 21.0057 122.877 21.2443L121.922 20.9034C122.093 20.5057 122.32 20.196 122.604 19.9744C122.891 19.75 123.203 19.5937 123.542 19.5057C123.882 19.4148 124.218 19.3693 124.547 19.3693C124.757 19.3693 124.999 19.3949 125.272 19.446C125.547 19.4943 125.813 19.5952 126.069 19.7486C126.327 19.902 126.542 20.1335 126.712 20.4432C126.882 20.7528 126.968 21.1676 126.968 21.6875V26H125.962V25.1136H125.911C125.843 25.2557 125.729 25.4077 125.57 25.5696C125.411 25.7315 125.199 25.8693 124.935 25.983C124.671 26.0966 124.348 26.1534 123.968 26.1534ZM124.121 25.25C124.519 25.25 124.854 25.1719 125.127 25.0156C125.402 24.8594 125.61 24.6577 125.749 24.4105C125.891 24.1634 125.962 23.9034 125.962 23.6307V22.7102C125.919 22.7614 125.826 22.8082 125.681 22.8509C125.539 22.8906 125.374 22.9261 125.186 22.9574C125.002 22.9858 124.821 23.0114 124.645 23.0341C124.472 23.054 124.331 23.071 124.223 23.0852C123.962 23.1193 123.718 23.1747 123.49 23.2514C123.266 23.3253 123.084 23.4375 122.945 23.5881C122.809 23.7358 122.74 23.9375 122.74 24.1932C122.74 24.5426 122.87 24.8068 123.128 24.9858C123.39 25.1619 123.721 25.25 124.121 25.25ZM128.803 28.4545V19.4545H129.775V20.4943H129.894C129.968 20.3807 130.07 20.2358 130.201 20.0597C130.335 19.8807 130.525 19.7216 130.772 19.5824C131.022 19.4403 131.36 19.3693 131.786 19.3693C132.337 19.3693 132.823 19.5071 133.244 19.7827C133.664 20.0582 133.992 20.4489 134.228 20.9545C134.464 21.4602 134.582 22.0568 134.582 22.7443C134.582 23.4375 134.464 24.0384 134.228 24.5469C133.992 25.0526 133.665 25.4446 133.248 25.723C132.83 25.9986 132.349 26.1364 131.803 26.1364C131.383 26.1364 131.046 26.0668 130.793 25.9276C130.54 25.7855 130.346 25.625 130.21 25.446C130.073 25.2642 129.968 25.1136 129.894 24.9943H129.809V28.4545H128.803ZM129.792 22.7273C129.792 23.2216 129.864 23.6577 130.009 24.0355C130.154 24.4105 130.366 24.7045 130.644 24.9176C130.923 25.1278 131.263 25.233 131.667 25.233C132.087 25.233 132.438 25.1222 132.719 24.9006C133.004 24.6761 133.217 24.375 133.359 23.9972C133.504 23.6165 133.576 23.1932 133.576 22.7273C133.576 22.267 133.505 21.8523 133.363 21.483C133.224 21.1108 133.012 20.8168 132.728 20.6009C132.447 20.3821 132.093 20.2727 131.667 20.2727C131.258 20.2727 130.914 20.3764 130.636 20.5838C130.357 20.7884 130.147 21.0753 130.005 21.4446C129.863 21.8111 129.792 22.2386 129.792 22.7273ZM136.116 28.4545V19.4545H137.087V20.4943H137.207C137.281 20.3807 137.383 20.2358 137.513 20.0597C137.647 19.8807 137.837 19.7216 138.085 19.5824C138.335 19.4403 138.673 19.3693 139.099 19.3693C139.65 19.3693 140.136 19.5071 140.556 19.7827C140.977 20.0582 141.305 20.4489 141.54 20.9545C141.776 21.4602 141.894 22.0568 141.894 22.7443C141.894 23.4375 141.776 24.0384 141.54 24.5469C141.305 25.0526 140.978 25.4446 140.56 25.723C140.143 25.9986 139.661 26.1364 139.116 26.1364C138.695 26.1364 138.359 26.0668 138.106 25.9276C137.853 25.7855 137.658 25.625 137.522 25.446C137.386 25.2642 137.281 25.1136 137.207 24.9943H137.121V28.4545H136.116ZM137.104 22.7273C137.104 23.2216 137.177 23.6577 137.322 24.0355C137.467 24.4105 137.678 24.7045 137.957 24.9176C138.235 25.1278 138.576 25.233 138.979 25.233C139.4 25.233 139.751 25.1222 140.032 24.9006C140.316 24.6761 140.529 24.375 140.671 23.9972C140.816 23.6165 140.888 23.1932 140.888 22.7273C140.888 22.267 140.817 21.8523 140.675 21.483C140.536 21.1108 140.325 20.8168 140.04 20.6009C139.759 20.3821 139.406 20.2727 138.979 20.2727C138.57 20.2727 138.227 20.3764 137.948 20.5838C137.67 20.7884 137.46 21.0753 137.317 21.4446C137.175 21.8111 137.104 22.2386 137.104 22.7273ZM143.428 26V19.4545H144.4V20.4432H144.468C144.587 20.1193 144.803 19.8565 145.116 19.6548C145.428 19.4531 145.781 19.3523 146.173 19.3523C146.246 19.3523 146.339 19.3537 146.45 19.3565C146.56 19.3594 146.644 19.3636 146.701 19.3693V20.392C146.667 20.3835 146.589 20.3707 146.467 20.3537C146.347 20.3338 146.221 20.3239 146.087 20.3239C145.769 20.3239 145.485 20.3906 145.235 20.5241C144.988 20.6548 144.792 20.8366 144.647 21.0696C144.505 21.2997 144.434 21.5625 144.434 21.858V26H143.428ZM150.353 26.1364C149.762 26.1364 149.244 25.9957 148.798 25.7145C148.354 25.4332 148.008 25.0398 147.758 24.5341C147.511 24.0284 147.387 23.4375 147.387 22.7614C147.387 22.0795 147.511 21.4844 147.758 20.9759C148.008 20.4673 148.354 20.0724 148.798 19.7912C149.244 19.5099 149.762 19.3693 150.353 19.3693C150.944 19.3693 151.461 19.5099 151.904 19.7912C152.35 20.0724 152.697 20.4673 152.944 20.9759C153.194 21.4844 153.319 22.0795 153.319 22.7614C153.319 23.4375 153.194 24.0284 152.944 24.5341C152.697 25.0398 152.35 25.4332 151.904 25.7145C151.461 25.9957 150.944 26.1364 150.353 26.1364ZM150.353 25.233C150.802 25.233 151.171 25.1179 151.461 24.8878C151.751 24.6577 151.965 24.3551 152.104 23.9801C152.244 23.6051 152.313 23.1989 152.313 22.7614C152.313 22.3239 152.244 21.9162 152.104 21.5384C151.965 21.1605 151.751 20.8551 151.461 20.6222C151.171 20.3892 150.802 20.2727 150.353 20.2727C149.904 20.2727 149.535 20.3892 149.245 20.6222C148.955 20.8551 148.741 21.1605 148.602 21.5384C148.462 21.9162 148.393 22.3239 148.393 22.7614C148.393 23.1989 148.462 23.6051 148.602 23.9801C148.741 24.3551 148.955 24.6577 149.245 24.8878C149.535 25.1179 149.904 25.233 150.353 25.233ZM159.972 19.4545L157.551 26H156.529L154.108 19.4545H155.199L157.006 24.6705H157.074L158.881 19.4545H159.972ZM163.026 26.1534C162.612 26.1534 162.235 26.0753 161.897 25.919C161.559 25.7599 161.29 25.5312 161.092 25.233C160.893 24.9318 160.793 24.5682 160.793 24.142C160.793 23.767 160.867 23.4631 161.015 23.2301C161.163 22.9943 161.36 22.8097 161.607 22.6761C161.854 22.5426 162.127 22.4432 162.425 22.3778C162.727 22.3097 163.029 22.2557 163.333 22.2159C163.731 22.1648 164.053 22.1264 164.3 22.1009C164.55 22.0724 164.732 22.0256 164.846 21.9602C164.962 21.8949 165.021 21.7812 165.021 21.6193V21.5852C165.021 21.1648 164.906 20.8381 164.675 20.6051C164.448 20.3722 164.103 20.2557 163.64 20.2557C163.16 20.2557 162.783 20.3608 162.511 20.571C162.238 20.7812 162.046 21.0057 161.935 21.2443L160.981 20.9034C161.151 20.5057 161.379 20.196 161.663 19.9744C161.95 19.75 162.262 19.5937 162.6 19.5057C162.941 19.4148 163.276 19.3693 163.606 19.3693C163.816 19.3693 164.058 19.3949 164.33 19.446C164.606 19.4943 164.871 19.5952 165.127 19.7486C165.386 19.902 165.6 20.1335 165.771 20.4432C165.941 20.7528 166.026 21.1676 166.026 21.6875V26H165.021V25.1136H164.969C164.901 25.2557 164.788 25.4077 164.629 25.5696C164.469 25.7315 164.258 25.8693 163.994 25.983C163.729 26.0966 163.407 26.1534 163.026 26.1534ZM163.18 25.25C163.577 25.25 163.913 25.1719 164.185 25.0156C164.461 24.8594 164.668 24.6577 164.808 24.4105C164.95 24.1634 165.021 23.9034 165.021 23.6307V22.7102C164.978 22.7614 164.884 22.8082 164.739 22.8509C164.597 22.8906 164.433 22.9261 164.245 22.9574C164.06 22.9858 163.88 23.0114 163.704 23.0341C163.531 23.054 163.39 23.071 163.282 23.0852C163.021 23.1193 162.776 23.1747 162.549 23.2514C162.325 23.3253 162.143 23.4375 162.004 23.5881C161.867 23.7358 161.799 23.9375 161.799 24.1932C161.799 24.5426 161.928 24.8068 162.187 24.9858C162.448 25.1619 162.779 25.25 163.18 25.25ZM168.868 17.2727V26H167.862V17.2727H168.868ZM176.999 19.4545V20.3068H173.471V19.4545H176.999ZM174.528 26V18.5511C174.528 18.1761 174.616 17.8636 174.792 17.6136C174.968 17.3636 175.197 17.1761 175.478 17.0511C175.759 16.9261 176.056 16.8636 176.369 16.8636C176.616 16.8636 176.817 16.8835 176.974 16.9233C177.13 16.9631 177.246 17 177.323 17.0341L177.033 17.9034C176.982 17.8864 176.911 17.8651 176.82 17.8395C176.732 17.8139 176.616 17.8011 176.471 17.8011C176.138 17.8011 175.898 17.8849 175.751 18.0526C175.606 18.2202 175.533 18.4659 175.533 18.7898V26H174.528ZM180.798 26.1364C180.207 26.1364 179.689 25.9957 179.243 25.7145C178.8 25.4332 178.453 25.0398 178.203 24.5341C177.956 24.0284 177.832 23.4375 177.832 22.7614C177.832 22.0795 177.956 21.4844 178.203 20.9759C178.453 20.4673 178.8 20.0724 179.243 19.7912C179.689 19.5099 180.207 19.3693 180.798 19.3693C181.389 19.3693 181.906 19.5099 182.349 19.7912C182.795 20.0724 183.142 20.4673 183.389 20.9759C183.639 21.4844 183.764 22.0795 183.764 22.7614C183.764 23.4375 183.639 24.0284 183.389 24.5341C183.142 25.0398 182.795 25.4332 182.349 25.7145C181.906 25.9957 181.389 26.1364 180.798 26.1364ZM180.798 25.233C181.247 25.233 181.616 25.1179 181.906 24.8878C182.196 24.6577 182.411 24.3551 182.55 23.9801C182.689 23.6051 182.759 23.1989 182.759 22.7614C182.759 22.3239 182.689 21.9162 182.55 21.5384C182.411 21.1605 182.196 20.8551 181.906 20.6222C181.616 20.3892 181.247 20.2727 180.798 20.2727C180.349 20.2727 179.98 20.3892 179.69 20.6222C179.401 20.8551 179.186 21.1605 179.047 21.5384C178.908 21.9162 178.838 22.3239 178.838 22.7614C178.838 23.1989 178.908 23.6051 179.047 23.9801C179.186 24.3551 179.401 24.6577 179.69 24.8878C179.98 25.1179 180.349 25.233 180.798 25.233ZM185.299 26V19.4545H186.271V20.4432H186.339C186.458 20.1193 186.674 19.8565 186.987 19.6548C187.299 19.4531 187.652 19.3523 188.044 19.3523C188.118 19.3523 188.21 19.3537 188.321 19.3565C188.431 19.3594 188.515 19.3636 188.572 19.3693V20.392C188.538 20.3835 188.46 20.3707 188.338 20.3537C188.218 20.3338 188.092 20.3239 187.958 20.3239C187.64 20.3239 187.356 20.3906 187.106 20.5241C186.859 20.6548 186.663 20.8366 186.518 21.0696C186.376 21.2997 186.305 21.5625 186.305 21.858V26H185.299ZM195.986 19.4545V20.3068H192.594V19.4545H195.986ZM193.582 17.8864H194.588V24.125C194.588 24.4091 194.629 24.6222 194.712 24.7642C194.797 24.9034 194.905 24.9972 195.036 25.0455C195.169 25.0909 195.31 25.1136 195.457 25.1136C195.568 25.1136 195.659 25.108 195.73 25.0966C195.801 25.0824 195.858 25.071 195.901 25.0625L196.105 25.9659C196.037 25.9915 195.942 26.017 195.82 26.0426C195.697 26.071 195.543 26.0852 195.355 26.0852C195.071 26.0852 194.793 26.0241 194.52 25.902C194.25 25.7798 194.026 25.5938 193.847 25.3438C193.67 25.0938 193.582 24.7784 193.582 24.3977V17.8864ZM198.645 22.0625V26H197.639V17.2727H198.645V20.4773H198.73C198.884 20.1392 199.114 19.8707 199.42 19.6719C199.73 19.4702 200.142 19.3693 200.656 19.3693C201.102 19.3693 201.493 19.4588 201.828 19.6378C202.163 19.8139 202.423 20.0852 202.608 20.4517C202.795 20.8153 202.889 21.2784 202.889 21.8409V26H201.884V21.9091C201.884 21.3892 201.749 20.9872 201.479 20.7031C201.212 20.4162 200.841 20.2727 200.366 20.2727C200.037 20.2727 199.741 20.3423 199.48 20.4815C199.222 20.6207 199.017 20.8239 198.866 21.0909C198.719 21.358 198.645 21.6818 198.645 22.0625ZM207.473 26.1364C206.843 26.1364 206.299 25.9972 205.841 25.7188C205.387 25.4375 205.036 25.0455 204.789 24.5426C204.544 24.0369 204.422 23.4489 204.422 22.7784C204.422 22.108 204.544 21.517 204.789 21.0057C205.036 20.4915 205.38 20.0909 205.82 19.804C206.263 19.5142 206.78 19.3693 207.371 19.3693C207.712 19.3693 208.049 19.4261 208.381 19.5398C208.713 19.6534 209.016 19.8381 209.289 20.0938C209.561 20.3466 209.779 20.6818 209.941 21.0994C210.103 21.517 210.184 22.0312 210.184 22.642V23.0682H205.138V22.1989H209.161C209.161 21.8295 209.087 21.5 208.939 21.2102C208.794 20.9205 208.587 20.6918 208.317 20.5241C208.05 20.3565 207.735 20.2727 207.371 20.2727C206.971 20.2727 206.624 20.3722 206.331 20.571C206.042 20.767 205.819 21.0227 205.662 21.3381C205.506 21.6534 205.428 21.9915 205.428 22.3523V22.9318C205.428 23.4261 205.513 23.8452 205.684 24.1889C205.857 24.5298 206.097 24.7898 206.404 24.9688C206.711 25.1449 207.067 25.233 207.473 25.233C207.738 25.233 207.976 25.196 208.189 25.1222C208.405 25.0455 208.591 24.9318 208.748 24.7812C208.904 24.6278 209.025 24.4375 209.11 24.2102L210.081 24.483C209.979 24.8125 209.807 25.1023 209.566 25.3523C209.324 25.5994 209.026 25.7926 208.671 25.9318C208.316 26.0682 207.917 26.1364 207.473 26.1364ZM215.088 26V19.4545H216.06V20.4773H216.145C216.282 20.1278 216.502 19.8565 216.806 19.6634C217.11 19.4673 217.475 19.3693 217.901 19.3693C218.333 19.3693 218.692 19.4673 218.979 19.6634C219.269 19.8565 219.495 20.1278 219.657 20.4773H219.725C219.892 20.1392 220.144 19.8707 220.479 19.6719C220.814 19.4702 221.216 19.3693 221.685 19.3693C222.27 19.3693 222.749 19.5526 223.121 19.919C223.493 20.2827 223.679 20.8494 223.679 21.6193V26H222.674V21.6193C222.674 21.1364 222.542 20.7912 222.277 20.5838C222.013 20.3764 221.702 20.2727 221.344 20.2727C220.884 20.2727 220.527 20.4119 220.275 20.6903C220.022 20.9659 219.895 21.3153 219.895 21.7386V26H218.873V21.517C218.873 21.1449 218.752 20.8452 218.51 20.6179C218.269 20.3878 217.958 20.2727 217.577 20.2727C217.316 20.2727 217.071 20.3423 216.844 20.4815C216.62 20.6207 216.438 20.8139 216.299 21.0611C216.162 21.3054 216.094 21.5881 216.094 21.9091V26H215.088ZM228.177 26.1364C227.586 26.1364 227.068 25.9957 226.622 25.7145C226.179 25.4332 225.832 25.0398 225.582 24.5341C225.335 24.0284 225.211 23.4375 225.211 22.7614C225.211 22.0795 225.335 21.4844 225.582 20.9759C225.832 20.4673 226.179 20.0724 226.622 19.7912C227.068 19.5099 227.586 19.3693 228.177 19.3693C228.768 19.3693 229.285 19.5099 229.728 19.7912C230.174 20.0724 230.521 20.4673 230.768 20.9759C231.018 21.4844 231.143 22.0795 231.143 22.7614C231.143 23.4375 231.018 24.0284 230.768 24.5341C230.521 25.0398 230.174 25.4332 229.728 25.7145C229.285 25.9957 228.768 26.1364 228.177 26.1364ZM228.177 25.233C228.626 25.233 228.995 25.1179 229.285 24.8878C229.575 24.6577 229.789 24.3551 229.929 23.9801C230.068 23.6051 230.137 23.1989 230.137 22.7614C230.137 22.3239 230.068 21.9162 229.929 21.5384C229.789 21.1605 229.575 20.8551 229.285 20.6222C228.995 20.3892 228.626 20.2727 228.177 20.2727C227.728 20.2727 227.359 20.3892 227.069 20.6222C226.779 20.8551 226.565 21.1605 226.426 21.5384C226.287 21.9162 226.217 22.3239 226.217 22.7614C226.217 23.1989 226.287 23.6051 226.426 23.9801C226.565 24.3551 226.779 24.6577 227.069 24.8878C227.359 25.1179 227.728 25.233 228.177 25.233ZM233.684 22.0625V26H232.678V19.4545H233.65V20.4773H233.735C233.888 20.1449 234.121 19.8778 234.434 19.6761C234.746 19.4716 235.15 19.3693 235.644 19.3693C236.087 19.3693 236.475 19.4602 236.808 19.642C237.14 19.821 237.398 20.0938 237.583 20.4602C237.768 20.8239 237.86 21.2841 237.86 21.8409V26H236.854V21.9091C236.854 21.3949 236.721 20.9943 236.454 20.7074C236.187 20.4176 235.82 20.2727 235.354 20.2727C235.033 20.2727 234.746 20.3423 234.494 20.4815C234.244 20.6207 234.046 20.8239 233.901 21.0909C233.756 21.358 233.684 21.6818 233.684 22.0625ZM242.544 19.4545V20.3068H239.152V19.4545H242.544ZM240.141 17.8864H241.147V24.125C241.147 24.4091 241.188 24.6222 241.27 24.7642C241.355 24.9034 241.463 24.9972 241.594 25.0455C241.728 25.0909 241.868 25.1136 242.016 25.1136C242.127 25.1136 242.218 25.108 242.289 25.0966C242.36 25.0824 242.417 25.071 242.459 25.0625L242.664 25.9659C242.596 25.9915 242.5 26.017 242.378 26.0426C242.256 26.071 242.101 26.0852 241.914 26.0852C241.63 26.0852 241.351 26.0241 241.078 25.902C240.809 25.7798 240.584 25.5938 240.405 25.3438C240.229 25.0938 240.141 24.7784 240.141 24.3977V17.8864ZM245.203 22.0625V26H244.198V17.2727H245.203V20.4773H245.289C245.442 20.1392 245.672 19.8707 245.979 19.6719C246.289 19.4702 246.701 19.3693 247.215 19.3693C247.661 19.3693 248.051 19.4588 248.387 19.6378C248.722 19.8139 248.982 20.0852 249.167 20.4517C249.354 20.8153 249.448 21.2784 249.448 21.8409V26H248.442V21.9091C248.442 21.3892 248.307 20.9872 248.037 20.7031C247.77 20.4162 247.4 20.2727 246.925 20.2727C246.596 20.2727 246.3 20.3423 246.039 20.4815C245.78 20.6207 245.576 20.8239 245.425 21.0909C245.277 21.358 245.203 21.6818 245.203 22.0625Z" fill="#969696"/>
<path d="M75.0568 66V57.2727H76.1136V65.0625H80.1705V66H75.0568ZM84.3295 66.1364C83.7386 66.1364 83.2202 65.9957 82.7741 65.7145C82.331 65.4332 81.9844 65.0398 81.7344 64.5341C81.4872 64.0284 81.3636 63.4375 81.3636 62.7614C81.3636 62.0795 81.4872 61.4844 81.7344 60.9759C81.9844 60.4673 82.331 60.0724 82.7741 59.7912C83.2202 59.5099 83.7386 59.3693 84.3295 59.3693C84.9205 59.3693 85.4375 59.5099 85.8807 59.7912C86.3267 60.0724 86.6733 60.4673 86.9205 60.9759C87.1705 61.4844 87.2955 62.0795 87.2955 62.7614C87.2955 63.4375 87.1705 64.0284 86.9205 64.5341C86.6733 65.0398 86.3267 65.4332 85.8807 65.7145C85.4375 65.9957 84.9205 66.1364 84.3295 66.1364ZM84.3295 65.233C84.7784 65.233 85.1477 65.1179 85.4375 64.8878C85.7273 64.6577 85.9418 64.3551 86.081 63.9801C86.2202 63.6051 86.2898 63.1989 86.2898 62.7614C86.2898 62.3239 86.2202 61.9162 86.081 61.5384C85.9418 61.1605 85.7273 60.8551 85.4375 60.6222C85.1477 60.3892 84.7784 60.2727 84.3295 60.2727C83.8807 60.2727 83.5114 60.3892 83.2216 60.6222C82.9318 60.8551 82.7173 61.1605 82.5781 61.5384C82.4389 61.9162 82.3693 62.3239 82.3693 62.7614C82.3693 63.1989 82.4389 63.6051 82.5781 63.9801C82.7173 64.3551 82.9318 64.6577 83.2216 64.8878C83.5114 65.1179 83.8807 65.233 84.3295 65.233ZM90.0909 66L88.0966 59.4545H89.1534L90.5682 64.4659H90.6364L92.0341 59.4545H93.108L94.4886 64.4489H94.5568L95.9716 59.4545H97.0284L95.0341 66H94.0455L92.6136 60.9716H92.5114L91.0795 66H90.0909ZM100.88 66.1364C100.249 66.1364 99.7049 65.9972 99.2475 65.7188C98.793 65.4375 98.4421 65.0455 98.195 64.5426C97.9506 64.0369 97.8285 63.4489 97.8285 62.7784C97.8285 62.108 97.9506 61.517 98.195 61.0057C98.4421 60.4915 98.7859 60.0909 99.2262 59.804C99.6694 59.5142 100.186 59.3693 100.777 59.3693C101.118 59.3693 101.455 59.4261 101.787 59.5398C102.12 59.6534 102.422 59.8381 102.695 60.0938C102.968 60.3466 103.185 60.6818 103.347 61.0994C103.509 61.517 103.59 62.0312 103.59 62.642V63.0682H98.5444V62.1989H102.567C102.567 61.8295 102.493 61.5 102.346 61.2102C102.201 60.9205 101.993 60.6918 101.723 60.5241C101.456 60.3565 101.141 60.2727 100.777 60.2727C100.377 60.2727 100.03 60.3722 99.7376 60.571C99.4478 60.767 99.2248 61.0227 99.0685 61.3381C98.9123 61.6534 98.8342 61.9915 98.8342 62.3523V62.9318C98.8342 63.4261 98.9194 63.8452 99.0898 64.1889C99.2631 64.5298 99.5032 64.7898 99.81 64.9688C100.117 65.1449 100.473 65.233 100.88 65.233C101.144 65.233 101.382 65.196 101.596 65.1222C101.811 65.0455 101.998 64.9318 102.154 64.7812C102.31 64.6278 102.431 64.4375 102.516 64.2102L103.488 64.483C103.385 64.8125 103.213 65.1023 102.972 65.3523C102.73 65.5994 102.432 65.7926 102.077 65.9318C101.722 66.0682 101.323 66.1364 100.88 66.1364ZM109.756 60.9205L108.853 61.1761C108.796 61.0256 108.712 60.8793 108.601 60.7372C108.493 60.5923 108.346 60.473 108.158 60.3793C107.971 60.2855 107.73 60.2386 107.438 60.2386C107.037 60.2386 106.703 60.331 106.436 60.5156C106.172 60.6974 106.04 60.929 106.04 61.2102C106.04 61.4602 106.131 61.6577 106.313 61.8026C106.495 61.9474 106.779 62.0682 107.165 62.1648L108.137 62.4034C108.722 62.5455 109.158 62.7628 109.445 63.0554C109.732 63.3452 109.875 63.7187 109.875 64.1761C109.875 64.5511 109.767 64.8864 109.551 65.1818C109.338 65.4773 109.04 65.7102 108.657 65.8807C108.273 66.0511 107.827 66.1364 107.319 66.1364C106.651 66.1364 106.098 65.9915 105.661 65.7017C105.223 65.4119 104.946 64.9886 104.83 64.4318L105.784 64.1932C105.875 64.5455 106.047 64.8097 106.3 64.9858C106.556 65.1619 106.89 65.25 107.301 65.25C107.77 65.25 108.142 65.1506 108.418 64.9517C108.696 64.75 108.836 64.5085 108.836 64.2273C108.836 64 108.756 63.8097 108.597 63.6562C108.438 63.5 108.194 63.3835 107.864 63.3068L106.773 63.0511C106.174 62.9091 105.733 62.6889 105.452 62.3906C105.174 62.0895 105.034 61.7131 105.034 61.2614C105.034 60.892 105.138 60.5653 105.346 60.2812C105.556 59.9972 105.841 59.7741 106.202 59.6122C106.566 59.4503 106.978 59.3693 107.438 59.3693C108.086 59.3693 108.594 59.5114 108.963 59.7955C109.336 60.0795 109.6 60.4545 109.756 60.9205ZM114.236 59.4545V60.3068H110.844V59.4545H114.236ZM111.832 57.8864H112.838V64.125C112.838 64.4091 112.879 64.6222 112.962 64.7642C113.047 64.9034 113.155 64.9972 113.286 65.0455C113.419 65.0909 113.56 65.1136 113.707 65.1136C113.818 65.1136 113.909 65.108 113.98 65.0966C114.051 65.0824 114.108 65.071 114.151 65.0625L114.355 65.9659C114.287 65.9915 114.192 66.017 114.07 66.0426C113.947 66.071 113.793 66.0852 113.605 66.0852C113.321 66.0852 113.043 66.0241 112.77 65.902C112.5 65.7798 112.276 65.5938 112.097 65.3438C111.92 65.0938 111.832 64.7784 111.832 64.3977V57.8864ZM121.05 66.1534C120.635 66.1534 120.259 66.0753 119.92 65.919C119.582 65.7599 119.314 65.5312 119.115 65.233C118.916 64.9318 118.817 64.5682 118.817 64.142C118.817 63.767 118.891 63.4631 119.038 63.2301C119.186 62.9943 119.384 62.8097 119.631 62.6761C119.878 62.5426 120.151 62.4432 120.449 62.3778C120.75 62.3097 121.053 62.2557 121.357 62.2159C121.754 62.1648 122.077 62.1264 122.324 62.1009C122.574 62.0724 122.756 62.0256 122.869 61.9602C122.986 61.8949 123.044 61.7812 123.044 61.6193V61.5852C123.044 61.1648 122.929 60.8381 122.699 60.6051C122.472 60.3722 122.126 60.2557 121.663 60.2557C121.183 60.2557 120.807 60.3608 120.534 60.571C120.261 60.7812 120.07 61.0057 119.959 61.2443L119.004 60.9034C119.175 60.5057 119.402 60.196 119.686 59.9744C119.973 59.75 120.286 59.5937 120.624 59.5057C120.964 59.4148 121.3 59.3693 121.629 59.3693C121.839 59.3693 122.081 59.3949 122.354 59.446C122.629 59.4943 122.895 59.5952 123.151 59.7486C123.409 59.902 123.624 60.1335 123.794 60.4432C123.964 60.7528 124.05 61.1676 124.05 61.6875V66H123.044V65.1136H122.993C122.925 65.2557 122.811 65.4077 122.652 65.5696C122.493 65.7315 122.281 65.8693 122.017 65.983C121.753 66.0966 121.43 66.1534 121.05 66.1534ZM121.203 65.25C121.601 65.25 121.936 65.1719 122.209 65.0156C122.484 64.8594 122.692 64.6577 122.831 64.4105C122.973 64.1634 123.044 63.9034 123.044 63.6307V62.7102C123.001 62.7614 122.908 62.8082 122.763 62.8509C122.621 62.8906 122.456 62.9261 122.268 62.9574C122.084 62.9858 121.903 63.0114 121.727 63.0341C121.554 63.054 121.413 63.071 121.305 63.0852C121.044 63.1193 120.8 63.1747 120.572 63.2514C120.348 63.3253 120.166 63.4375 120.027 63.5881C119.891 63.7358 119.822 63.9375 119.822 64.1932C119.822 64.5426 119.952 64.8068 120.21 64.9858C120.472 65.1619 120.803 65.25 121.203 65.25ZM125.885 68.4545V59.4545H126.857V60.4943H126.976C127.05 60.3807 127.152 60.2358 127.283 60.0597C127.417 59.8807 127.607 59.7216 127.854 59.5824C128.104 59.4403 128.442 59.3693 128.868 59.3693C129.419 59.3693 129.905 59.5071 130.326 59.7827C130.746 60.0582 131.074 60.4489 131.31 60.9545C131.546 61.4602 131.664 62.0568 131.664 62.7443C131.664 63.4375 131.546 64.0384 131.31 64.5469C131.074 65.0526 130.748 65.4446 130.33 65.723C129.912 65.9986 129.431 66.1364 128.885 66.1364C128.465 66.1364 128.128 66.0668 127.875 65.9276C127.623 65.7855 127.428 65.625 127.292 65.446C127.155 65.2642 127.05 65.1136 126.976 64.9943H126.891V68.4545H125.885ZM126.874 62.7273C126.874 63.2216 126.946 63.6577 127.091 64.0355C127.236 64.4105 127.448 64.7045 127.726 64.9176C128.005 65.1278 128.346 65.233 128.749 65.233C129.169 65.233 129.52 65.1222 129.801 64.9006C130.086 64.6761 130.299 64.375 130.441 63.9972C130.586 63.6165 130.658 63.1932 130.658 62.7273C130.658 62.267 130.587 61.8523 130.445 61.483C130.306 61.1108 130.094 60.8168 129.81 60.6009C129.529 60.3821 129.175 60.2727 128.749 60.2727C128.34 60.2727 127.996 60.3764 127.718 60.5838C127.439 60.7884 127.229 61.0753 127.087 61.4446C126.945 61.8111 126.874 62.2386 126.874 62.7273ZM133.198 68.4545V59.4545H134.169V60.4943H134.289C134.363 60.3807 134.465 60.2358 134.596 60.0597C134.729 59.8807 134.919 59.7216 135.167 59.5824C135.417 59.4403 135.755 59.3693 136.181 59.3693C136.732 59.3693 137.218 59.5071 137.638 59.7827C138.059 60.0582 138.387 60.4489 138.623 60.9545C138.858 61.4602 138.976 62.0568 138.976 62.7443C138.976 63.4375 138.858 64.0384 138.623 64.5469C138.387 65.0526 138.06 65.4446 137.642 65.723C137.225 65.9986 136.743 66.1364 136.198 66.1364C135.777 66.1364 135.441 66.0668 135.188 65.9276C134.935 65.7855 134.74 65.625 134.604 65.446C134.468 65.2642 134.363 65.1136 134.289 64.9943H134.203V68.4545H133.198ZM134.186 62.7273C134.186 63.2216 134.259 63.6577 134.404 64.0355C134.549 64.4105 134.76 64.7045 135.039 64.9176C135.317 65.1278 135.658 65.233 136.061 65.233C136.482 65.233 136.833 65.1222 137.114 64.9006C137.398 64.6761 137.611 64.375 137.753 63.9972C137.898 63.6165 137.971 63.1932 137.971 62.7273C137.971 62.267 137.9 61.8523 137.757 61.483C137.618 61.1108 137.407 60.8168 137.123 60.6009C136.841 60.3821 136.488 60.2727 136.061 60.2727C135.652 60.2727 135.309 60.3764 135.03 60.5838C134.752 60.7884 134.542 61.0753 134.4 61.4446C134.257 61.8111 134.186 62.2386 134.186 62.7273ZM140.51 66V59.4545H141.482V60.4432H141.55C141.669 60.1193 141.885 59.8565 142.198 59.6548C142.51 59.4531 142.863 59.3523 143.255 59.3523C143.328 59.3523 143.421 59.3537 143.532 59.3565C143.642 59.3594 143.726 59.3636 143.783 59.3693V60.392C143.749 60.3835 143.671 60.3707 143.549 60.3537C143.429 60.3338 143.303 60.3239 143.169 60.3239C142.851 60.3239 142.567 60.3906 142.317 60.5241C142.07 60.6548 141.874 60.8366 141.729 61.0696C141.587 61.2997 141.516 61.5625 141.516 61.858V66H140.51ZM147.435 66.1364C146.844 66.1364 146.326 65.9957 145.88 65.7145C145.436 65.4332 145.09 65.0398 144.84 64.5341C144.593 64.0284 144.469 63.4375 144.469 62.7614C144.469 62.0795 144.593 61.4844 144.84 60.9759C145.09 60.4673 145.436 60.0724 145.88 59.7912C146.326 59.5099 146.844 59.3693 147.435 59.3693C148.026 59.3693 148.543 59.5099 148.986 59.7912C149.432 60.0724 149.779 60.4673 150.026 60.9759C150.276 61.4844 150.401 62.0795 150.401 62.7614C150.401 63.4375 150.276 64.0284 150.026 64.5341C149.779 65.0398 149.432 65.4332 148.986 65.7145C148.543 65.9957 148.026 66.1364 147.435 66.1364ZM147.435 65.233C147.884 65.233 148.253 65.1179 148.543 64.8878C148.833 64.6577 149.047 64.3551 149.186 63.9801C149.326 63.6051 149.395 63.1989 149.395 62.7614C149.395 62.3239 149.326 61.9162 149.186 61.5384C149.047 61.1605 148.833 60.8551 148.543 60.6222C148.253 60.3892 147.884 60.2727 147.435 60.2727C146.986 60.2727 146.617 60.3892 146.327 60.6222C146.037 60.8551 145.823 61.1605 145.684 61.5384C145.544 61.9162 145.475 62.3239 145.475 62.7614C145.475 63.1989 145.544 63.6051 145.684 63.9801C145.823 64.3551 146.037 64.6577 146.327 64.8878C146.617 65.1179 146.986 65.233 147.435 65.233ZM157.054 59.4545L154.634 66H153.611L151.19 59.4545H152.281L154.088 64.6705H154.156L155.963 59.4545H157.054ZM160.108 66.1534C159.694 66.1534 159.317 66.0753 158.979 65.919C158.641 65.7599 158.373 65.5312 158.174 65.233C157.975 64.9318 157.875 64.5682 157.875 64.142C157.875 63.767 157.949 63.4631 158.097 63.2301C158.245 62.9943 158.442 62.8097 158.689 62.6761C158.936 62.5426 159.209 62.4432 159.507 62.3778C159.809 62.3097 160.111 62.2557 160.415 62.2159C160.813 62.1648 161.135 62.1264 161.382 62.1009C161.632 62.0724 161.814 62.0256 161.928 61.9602C162.044 61.8949 162.103 61.7812 162.103 61.6193V61.5852C162.103 61.1648 161.988 60.8381 161.757 60.6051C161.53 60.3722 161.185 60.2557 160.722 60.2557C160.242 60.2557 159.865 60.3608 159.593 60.571C159.32 60.7812 159.128 61.0057 159.017 61.2443L158.063 60.9034C158.233 60.5057 158.461 60.196 158.745 59.9744C159.032 59.75 159.344 59.5937 159.682 59.5057C160.023 59.4148 160.358 59.3693 160.688 59.3693C160.898 59.3693 161.14 59.3949 161.412 59.446C161.688 59.4943 161.953 59.5952 162.209 59.7486C162.468 59.902 162.682 60.1335 162.853 60.4432C163.023 60.7528 163.108 61.1676 163.108 61.6875V66H162.103V65.1136H162.051C161.983 65.2557 161.87 65.4077 161.711 65.5696C161.551 65.7315 161.34 65.8693 161.076 65.983C160.811 66.0966 160.489 66.1534 160.108 66.1534ZM160.262 65.25C160.659 65.25 160.995 65.1719 161.267 65.0156C161.543 64.8594 161.75 64.6577 161.89 64.4105C162.032 64.1634 162.103 63.9034 162.103 63.6307V62.7102C162.06 62.7614 161.966 62.8082 161.821 62.8509C161.679 62.8906 161.515 62.9261 161.327 62.9574C161.142 62.9858 160.962 63.0114 160.786 63.0341C160.613 63.054 160.472 63.071 160.364 63.0852C160.103 63.1193 159.858 63.1747 159.631 63.2514C159.407 63.3253 159.225 63.4375 159.086 63.5881C158.949 63.7358 158.881 63.9375 158.881 64.1932C158.881 64.5426 159.01 64.8068 159.269 64.9858C159.53 65.1619 159.861 65.25 160.262 65.25ZM165.95 57.2727V66H164.944V57.2727H165.95ZM174.081 59.4545V60.3068H170.553V59.4545H174.081ZM171.61 66V58.5511C171.61 58.1761 171.698 57.8636 171.874 57.6136C172.05 57.3636 172.279 57.1761 172.56 57.0511C172.841 56.9261 173.138 56.8636 173.451 56.8636C173.698 56.8636 173.9 56.8835 174.056 56.9233C174.212 56.9631 174.328 57 174.405 57.0341L174.115 57.9034C174.064 57.8864 173.993 57.8651 173.902 57.8395C173.814 57.8139 173.698 57.8011 173.553 57.8011C173.221 57.8011 172.98 57.8849 172.833 58.0526C172.688 58.2202 172.615 58.4659 172.615 58.7898V66H171.61ZM177.88 66.1364C177.289 66.1364 176.771 65.9957 176.325 65.7145C175.882 65.4332 175.535 65.0398 175.285 64.5341C175.038 64.0284 174.914 63.4375 174.914 62.7614C174.914 62.0795 175.038 61.4844 175.285 60.9759C175.535 60.4673 175.882 60.0724 176.325 59.7912C176.771 59.5099 177.289 59.3693 177.88 59.3693C178.471 59.3693 178.988 59.5099 179.431 59.7912C179.877 60.0724 180.224 60.4673 180.471 60.9759C180.721 61.4844 180.846 62.0795 180.846 62.7614C180.846 63.4375 180.721 64.0284 180.471 64.5341C180.224 65.0398 179.877 65.4332 179.431 65.7145C178.988 65.9957 178.471 66.1364 177.88 66.1364ZM177.88 65.233C178.329 65.233 178.699 65.1179 178.988 64.8878C179.278 64.6577 179.493 64.3551 179.632 63.9801C179.771 63.6051 179.841 63.1989 179.841 62.7614C179.841 62.3239 179.771 61.9162 179.632 61.5384C179.493 61.1605 179.278 60.8551 178.988 60.6222C178.699 60.3892 178.329 60.2727 177.88 60.2727C177.431 60.2727 177.062 60.3892 176.772 60.6222C176.483 60.8551 176.268 61.1605 176.129 61.5384C175.99 61.9162 175.92 62.3239 175.92 62.7614C175.92 63.1989 175.99 63.6051 176.129 63.9801C176.268 64.3551 176.483 64.6577 176.772 64.8878C177.062 65.1179 177.431 65.233 177.88 65.233ZM182.381 66V59.4545H183.353V60.4432H183.421C183.54 60.1193 183.756 59.8565 184.069 59.6548C184.381 59.4531 184.734 59.3523 185.126 59.3523C185.2 59.3523 185.292 59.3537 185.403 59.3565C185.513 59.3594 185.597 59.3636 185.654 59.3693V60.392C185.62 60.3835 185.542 60.3707 185.42 60.3537C185.3 60.3338 185.174 60.3239 185.04 60.3239C184.722 60.3239 184.438 60.3906 184.188 60.5241C183.941 60.6548 183.745 60.8366 183.6 61.0696C183.458 61.2997 183.387 61.5625 183.387 61.858V66H182.381ZM193.068 59.4545V60.3068H189.676V59.4545H193.068ZM190.664 57.8864H191.67V64.125C191.67 64.4091 191.711 64.6222 191.794 64.7642C191.879 64.9034 191.987 64.9972 192.118 65.0455C192.251 65.0909 192.392 65.1136 192.539 65.1136C192.65 65.1136 192.741 65.108 192.812 65.0966C192.883 65.0824 192.94 65.071 192.983 65.0625L193.187 65.9659C193.119 65.9915 193.024 66.017 192.902 66.0426C192.779 66.071 192.625 66.0852 192.437 66.0852C192.153 66.0852 191.875 66.0241 191.602 65.902C191.332 65.7798 191.108 65.5938 190.929 65.3438C190.752 65.0938 190.664 64.7784 190.664 64.3977V57.8864ZM195.727 62.0625V66H194.721V57.2727H195.727V60.4773H195.812C195.966 60.1392 196.196 59.8707 196.502 59.6719C196.812 59.4702 197.224 59.3693 197.738 59.3693C198.184 59.3693 198.575 59.4588 198.91 59.6378C199.245 59.8139 199.505 60.0852 199.69 60.4517C199.877 60.8153 199.971 61.2784 199.971 61.8409V66H198.966V61.9091C198.966 61.3892 198.831 60.9872 198.561 60.7031C198.294 60.4162 197.923 60.2727 197.449 60.2727C197.119 60.2727 196.824 60.3423 196.562 60.4815C196.304 60.6207 196.099 60.8239 195.949 61.0909C195.801 61.358 195.727 61.6818 195.727 62.0625ZM204.555 66.1364C203.925 66.1364 203.381 65.9972 202.923 65.7188C202.469 65.4375 202.118 65.0455 201.871 64.5426C201.626 64.0369 201.504 63.4489 201.504 62.7784C201.504 62.108 201.626 61.517 201.871 61.0057C202.118 60.4915 202.462 60.0909 202.902 59.804C203.345 59.5142 203.862 59.3693 204.453 59.3693C204.794 59.3693 205.131 59.4261 205.463 59.5398C205.795 59.6534 206.098 59.8381 206.371 60.0938C206.643 60.3466 206.861 60.6818 207.023 61.0994C207.185 61.517 207.266 62.0312 207.266 62.642V63.0682H202.22V62.1989H206.243C206.243 61.8295 206.169 61.5 206.021 61.2102C205.876 60.9205 205.669 60.6918 205.399 60.5241C205.132 60.3565 204.817 60.2727 204.453 60.2727C204.053 60.2727 203.706 60.3722 203.413 60.571C203.124 60.767 202.901 61.0227 202.744 61.3381C202.588 61.6534 202.51 61.9915 202.51 62.3523V62.9318C202.51 63.4261 202.595 63.8452 202.766 64.1889C202.939 64.5298 203.179 64.7898 203.486 64.9688C203.793 65.1449 204.149 65.233 204.555 65.233C204.82 65.233 205.058 65.196 205.271 65.1222C205.487 65.0455 205.673 64.9318 205.83 64.7812C205.986 64.6278 206.107 64.4375 206.192 64.2102L207.163 64.483C207.061 64.8125 206.889 65.1023 206.648 65.3523C206.406 65.5994 206.108 65.7926 205.753 65.9318C205.398 66.0682 204.999 66.1364 204.555 66.1364ZM212.17 66V59.4545H213.142V60.4773H213.227C213.364 60.1278 213.584 59.8565 213.888 59.6634C214.192 59.4673 214.557 59.3693 214.983 59.3693C215.415 59.3693 215.774 59.4673 216.061 59.6634C216.351 59.8565 216.577 60.1278 216.739 60.4773H216.807C216.974 60.1392 217.226 59.8707 217.561 59.6719C217.896 59.4702 218.298 59.3693 218.767 59.3693C219.352 59.3693 219.831 59.5526 220.203 59.919C220.575 60.2827 220.761 60.8494 220.761 61.6193V66H219.756V61.6193C219.756 61.1364 219.624 60.7912 219.359 60.5838C219.095 60.3764 218.784 60.2727 218.426 60.2727C217.966 60.2727 217.609 60.4119 217.357 60.6903C217.104 60.9659 216.977 61.3153 216.977 61.7386V66H215.955V61.517C215.955 61.1449 215.834 60.8452 215.592 60.6179C215.351 60.3878 215.04 60.2727 214.659 60.2727C214.398 60.2727 214.153 60.3423 213.926 60.4815C213.702 60.6207 213.52 60.8139 213.381 61.0611C213.244 61.3054 213.176 61.5881 213.176 61.9091V66H212.17ZM225.259 66.1364C224.668 66.1364 224.15 65.9957 223.704 65.7145C223.261 65.4332 222.914 65.0398 222.664 64.5341C222.417 64.0284 222.293 63.4375 222.293 62.7614C222.293 62.0795 222.417 61.4844 222.664 60.9759C222.914 60.4673 223.261 60.0724 223.704 59.7912C224.15 59.5099 224.668 59.3693 225.259 59.3693C225.85 59.3693 226.367 59.5099 226.81 59.7912C227.256 60.0724 227.603 60.4673 227.85 60.9759C228.1 61.4844 228.225 62.0795 228.225 62.7614C228.225 63.4375 228.1 64.0284 227.85 64.5341C227.603 65.0398 227.256 65.4332 226.81 65.7145C226.367 65.9957 225.85 66.1364 225.259 66.1364ZM225.259 65.233C225.708 65.233 226.077 65.1179 226.367 64.8878C226.657 64.6577 226.871 64.3551 227.011 63.9801C227.15 63.6051 227.219 63.1989 227.219 62.7614C227.219 62.3239 227.15 61.9162 227.011 61.5384C226.871 61.1605 226.657 60.8551 226.367 60.6222C226.077 60.3892 225.708 60.2727 225.259 60.2727C224.81 60.2727 224.441 60.3892 224.151 60.6222C223.862 60.8551 223.647 61.1605 223.508 61.5384C223.369 61.9162 223.299 62.3239 223.299 62.7614C223.299 63.1989 223.369 63.6051 223.508 63.9801C223.647 64.3551 223.862 64.6577 224.151 64.8878C224.441 65.1179 224.81 65.233 225.259 65.233ZM230.766 62.0625V66H229.76V59.4545H230.732V60.4773H230.817C230.971 60.1449 231.203 59.8778 231.516 59.6761C231.828 59.4716 232.232 59.3693 232.726 59.3693C233.169 59.3693 233.557 59.4602 233.89 59.642C234.222 59.821 234.48 60.0938 234.665 60.4602C234.85 60.8239 234.942 61.2841 234.942 61.8409V66H233.936V61.9091C233.936 61.3949 233.803 60.9943 233.536 60.7074C233.269 60.4176 232.902 60.2727 232.436 60.2727C232.115 60.2727 231.828 60.3423 231.576 60.4815C231.326 60.6207 231.128 60.8239 230.983 61.0909C230.838 61.358 230.766 61.6818 230.766 62.0625ZM239.626 59.4545V60.3068H236.234V59.4545H239.626ZM237.223 57.8864H238.229V64.125C238.229 64.4091 238.27 64.6222 238.352 64.7642C238.438 64.9034 238.545 64.9972 238.676 65.0455C238.81 65.0909 238.95 65.1136 239.098 65.1136C239.209 65.1136 239.3 65.108 239.371 65.0966C239.442 65.0824 239.499 65.071 239.541 65.0625L239.746 65.9659C239.678 65.9915 239.582 66.017 239.46 66.0426C239.338 66.071 239.183 66.0852 238.996 66.0852C238.712 66.0852 238.433 66.0241 238.161 65.902C237.891 65.7798 237.666 65.5938 237.487 65.3438C237.311 65.0938 237.223 64.7784 237.223 64.3977V57.8864ZM242.286 62.0625V66H241.28V57.2727H242.286V60.4773H242.371C242.524 60.1392 242.754 59.8707 243.061 59.6719C243.371 59.4702 243.783 59.3693 244.297 59.3693C244.743 59.3693 245.134 59.4588 245.469 59.6378C245.804 59.8139 246.064 60.0852 246.249 60.4517C246.436 60.8153 246.53 61.2784 246.53 61.8409V66H245.524V61.9091C245.524 61.3892 245.389 60.9872 245.119 60.7031C244.852 60.4162 244.482 60.2727 244.007 60.2727C243.678 60.2727 243.382 60.3423 243.121 60.4815C242.862 60.6207 242.658 60.8239 242.507 61.0909C242.359 61.358 242.286 61.6818 242.286 62.0625Z" fill="#969696"/>
<path d="M75.4148 46H74.3068L77.5114 37.2727H78.6023L81.8068 46H80.6989L78.0909 38.6534H78.0227L75.4148 46ZM75.8239 42.5909H80.2898V43.5284H75.8239V42.5909ZM87.5618 39.4545L85.1413 46H84.1186L81.6982 39.4545H82.7891L84.5959 44.6705H84.6641L86.4709 39.4545H87.5618ZM91.3991 46.1364C90.7685 46.1364 90.2244 45.9972 89.767 45.7188C89.3125 45.4375 88.9616 45.0455 88.7145 44.5426C88.4702 44.0369 88.348 43.4489 88.348 42.7784C88.348 42.108 88.4702 41.517 88.7145 41.0057C88.9616 40.4915 89.3054 40.0909 89.7457 39.804C90.1889 39.5142 90.706 39.3693 91.2969 39.3693C91.6378 39.3693 91.9744 39.4261 92.3068 39.5398C92.6392 39.6534 92.9418 39.8381 93.2145 40.0938C93.4872 40.3466 93.7045 40.6818 93.8665 41.0994C94.0284 41.517 94.1094 42.0312 94.1094 42.642V43.0682H89.0639V42.1989H93.0866C93.0866 41.8295 93.0128 41.5 92.8651 41.2102C92.7202 40.9205 92.5128 40.6918 92.2429 40.5241C91.9759 40.3565 91.6605 40.2727 91.2969 40.2727C90.8963 40.2727 90.5497 40.3722 90.2571 40.571C89.9673 40.767 89.7443 41.0227 89.5881 41.3381C89.4318 41.6534 89.3537 41.9915 89.3537 42.3523V42.9318C89.3537 43.4261 89.4389 43.8452 89.6094 44.1889C89.7827 44.5298 90.0227 44.7898 90.3295 44.9688C90.6364 45.1449 90.9929 45.233 91.3991 45.233C91.6634 45.233 91.902 45.196 92.1151 45.1222C92.331 45.0455 92.517 44.9318 92.6733 44.7812C92.8295 44.6278 92.9503 44.4375 93.0355 44.2102L94.0071 44.483C93.9048 44.8125 93.733 45.1023 93.4915 45.3523C93.25 45.5994 92.9517 45.7926 92.5966 45.9318C92.2415 46.0682 91.8423 46.1364 91.3991 46.1364ZM95.6392 46V39.4545H96.6108V40.4432H96.679C96.7983 40.1193 97.0142 39.8565 97.3267 39.6548C97.6392 39.4531 97.9915 39.3523 98.3835 39.3523C98.4574 39.3523 98.5497 39.3537 98.6605 39.3565C98.7713 39.3594 98.8551 39.3636 98.9119 39.3693V40.392C98.8778 40.3835 98.7997 40.3707 98.6776 40.3537C98.5582 40.3338 98.4318 40.3239 98.2983 40.3239C97.9801 40.3239 97.696 40.3906 97.446 40.5241C97.1989 40.6548 97.0028 40.8366 96.858 41.0696C96.7159 41.2997 96.6449 41.5625 96.6449 41.858V46H95.6392ZM102.03 46.1534C101.615 46.1534 101.239 46.0753 100.901 45.919C100.563 45.7599 100.294 45.5312 100.096 45.233C99.8967 44.9318 99.7972 44.5682 99.7972 44.142C99.7972 43.767 99.8711 43.4631 100.019 43.2301C100.167 42.9943 100.364 42.8097 100.611 42.6761C100.858 42.5426 101.131 42.4432 101.429 42.3778C101.73 42.3097 102.033 42.2557 102.337 42.2159C102.735 42.1648 103.057 42.1264 103.304 42.1009C103.554 42.0724 103.736 42.0256 103.85 41.9602C103.966 41.8949 104.025 41.7812 104.025 41.6193V41.5852C104.025 41.1648 103.909 40.8381 103.679 40.6051C103.452 40.3722 103.107 40.2557 102.644 40.2557C102.164 40.2557 101.787 40.3608 101.515 40.571C101.242 40.7812 101.05 41.0057 100.939 41.2443L99.9847 40.9034C100.155 40.5057 100.382 40.196 100.667 39.9744C100.953 39.75 101.266 39.5937 101.604 39.5057C101.945 39.4148 102.28 39.3693 102.61 39.3693C102.82 39.3693 103.061 39.3949 103.334 39.446C103.61 39.4943 103.875 39.5952 104.131 39.7486C104.39 39.902 104.604 40.1335 104.775 40.4432C104.945 40.7528 105.03 41.1676 105.03 41.6875V46H104.025V45.1136H103.973C103.905 45.2557 103.792 45.4077 103.632 45.5696C103.473 45.7315 103.262 45.8693 102.998 45.983C102.733 46.0966 102.411 46.1534 102.03 46.1534ZM102.184 45.25C102.581 45.25 102.917 45.1719 103.189 45.0156C103.465 44.8594 103.672 44.6577 103.811 44.4105C103.953 44.1634 104.025 43.9034 104.025 43.6307V42.7102C103.982 42.7614 103.888 42.8082 103.743 42.8509C103.601 42.8906 103.436 42.9261 103.249 42.9574C103.064 42.9858 102.884 43.0114 102.708 43.0341C102.534 43.054 102.394 43.071 102.286 43.0852C102.025 43.1193 101.78 43.1747 101.553 43.2514C101.328 43.3253 101.147 43.4375 101.007 43.5881C100.871 43.7358 100.803 43.9375 100.803 44.1932C100.803 44.5426 100.932 44.8068 101.191 44.9858C101.452 45.1619 101.783 45.25 102.184 45.25ZM109.508 48.5909C109.022 48.5909 108.604 48.5284 108.255 48.4034C107.906 48.2812 107.614 48.1193 107.381 47.9176C107.151 47.7188 106.968 47.5057 106.832 47.2784L107.633 46.7159C107.724 46.8352 107.839 46.9716 107.978 47.125C108.117 47.2812 108.308 47.4162 108.549 47.5298C108.793 47.6463 109.113 47.7045 109.508 47.7045C110.036 47.7045 110.472 47.5767 110.816 47.321C111.16 47.0653 111.332 46.6648 111.332 46.1193V44.7898H111.246C111.173 44.9091 111.067 45.0568 110.931 45.233C110.798 45.4062 110.604 45.5611 110.352 45.6974C110.102 45.831 109.763 45.8977 109.337 45.8977C108.809 45.8977 108.335 45.7727 107.914 45.5227C107.496 45.2727 107.165 44.9091 106.921 44.4318C106.68 43.9545 106.559 43.375 106.559 42.6932C106.559 42.0227 106.677 41.4389 106.913 40.9418C107.148 40.4418 107.477 40.0554 107.897 39.7827C108.317 39.5071 108.803 39.3693 109.354 39.3693C109.781 39.3693 110.119 39.4403 110.369 39.5824C110.621 39.7216 110.815 39.8807 110.948 40.0597C111.085 40.2358 111.19 40.3807 111.263 40.4943H111.366V39.4545H112.337V46.1875C112.337 46.75 112.21 47.2074 111.954 47.5597C111.701 47.9148 111.36 48.1747 110.931 48.3395C110.505 48.5071 110.031 48.5909 109.508 48.5909ZM109.474 44.9943C109.877 44.9943 110.218 44.902 110.496 44.7173C110.775 44.5327 110.987 44.267 111.131 43.9205C111.276 43.5739 111.349 43.1591 111.349 42.6761C111.349 42.2045 111.278 41.7884 111.136 41.4276C110.994 41.0668 110.783 40.7841 110.505 40.5795C110.227 40.375 109.883 40.2727 109.474 40.2727C109.048 40.2727 108.692 40.3807 108.408 40.5966C108.127 40.8125 107.915 41.1023 107.773 41.4659C107.634 41.8295 107.565 42.233 107.565 42.6761C107.565 43.1307 107.636 43.5327 107.778 43.8821C107.923 44.2287 108.136 44.5014 108.417 44.7003C108.701 44.8963 109.053 44.9943 109.474 44.9943ZM116.923 46.1364C116.292 46.1364 115.748 45.9972 115.29 45.7188C114.836 45.4375 114.485 45.0455 114.238 44.5426C113.994 44.0369 113.871 43.4489 113.871 42.7784C113.871 42.108 113.994 41.517 114.238 41.0057C114.485 40.4915 114.829 40.0909 115.269 39.804C115.712 39.5142 116.229 39.3693 116.82 39.3693C117.161 39.3693 117.498 39.4261 117.83 39.5398C118.163 39.6534 118.465 39.8381 118.738 40.0938C119.011 40.3466 119.228 40.6818 119.39 41.0994C119.552 41.517 119.633 42.0312 119.633 42.642V43.0682H114.587V42.1989H118.61C118.61 41.8295 118.536 41.5 118.388 41.2102C118.244 40.9205 118.036 40.6918 117.766 40.5241C117.499 40.3565 117.184 40.2727 116.82 40.2727C116.42 40.2727 116.073 40.3722 115.781 40.571C115.491 40.767 115.268 41.0227 115.112 41.3381C114.955 41.6534 114.877 41.9915 114.877 42.3523V42.9318C114.877 43.4261 114.962 43.8452 115.133 44.1889C115.306 44.5298 115.546 44.7898 115.853 44.9688C116.16 45.1449 116.516 45.233 116.923 45.233C117.187 45.233 117.425 45.196 117.638 45.1222C117.854 45.0455 118.04 44.9318 118.197 44.7812C118.353 44.6278 118.474 44.4375 118.559 44.2102L119.531 44.483C119.428 44.8125 119.256 45.1023 119.015 45.3523C118.773 45.5994 118.475 45.7926 118.12 45.9318C117.765 46.0682 117.366 46.1364 116.923 46.1364ZM126.464 46.1534C126.049 46.1534 125.673 46.0753 125.335 45.919C124.996 45.7599 124.728 45.5312 124.529 45.233C124.33 44.9318 124.231 44.5682 124.231 44.142C124.231 43.767 124.305 43.4631 124.452 43.2301C124.6 42.9943 124.798 42.8097 125.045 42.6761C125.292 42.5426 125.565 42.4432 125.863 42.3778C126.164 42.3097 126.467 42.2557 126.771 42.2159C127.168 42.1648 127.491 42.1264 127.738 42.1009C127.988 42.0724 128.17 42.0256 128.283 41.9602C128.4 41.8949 128.458 41.7812 128.458 41.6193V41.5852C128.458 41.1648 128.343 40.8381 128.113 40.6051C127.886 40.3722 127.54 40.2557 127.077 40.2557C126.597 40.2557 126.221 40.3608 125.948 40.571C125.675 40.7812 125.484 41.0057 125.373 41.2443L124.418 40.9034C124.589 40.5057 124.816 40.196 125.1 39.9744C125.387 39.75 125.7 39.5937 126.038 39.5057C126.379 39.4148 126.714 39.3693 127.043 39.3693C127.254 39.3693 127.495 39.3949 127.768 39.446C128.043 39.4943 128.309 39.5952 128.565 39.7486C128.823 39.902 129.038 40.1335 129.208 40.4432C129.379 40.7528 129.464 41.1676 129.464 41.6875V46H128.458V45.1136H128.407C128.339 45.2557 128.225 45.4077 128.066 45.5696C127.907 45.7315 127.695 45.8693 127.431 45.983C127.167 46.0966 126.844 46.1534 126.464 46.1534ZM126.617 45.25C127.015 45.25 127.35 45.1719 127.623 45.0156C127.898 44.8594 128.106 44.6577 128.245 44.4105C128.387 44.1634 128.458 43.9034 128.458 43.6307V42.7102C128.415 42.7614 128.322 42.8082 128.177 42.8509C128.035 42.8906 127.87 42.9261 127.683 42.9574C127.498 42.9858 127.317 43.0114 127.141 43.0341C126.968 43.054 126.827 43.071 126.719 43.0852C126.458 43.1193 126.214 43.1747 125.987 43.2514C125.762 43.3253 125.58 43.4375 125.441 43.5881C125.305 43.7358 125.237 43.9375 125.237 44.1932C125.237 44.5426 125.366 44.8068 125.624 44.9858C125.886 45.1619 126.217 45.25 126.617 45.25ZM131.299 48.4545V39.4545H132.271V40.4943H132.39C132.464 40.3807 132.566 40.2358 132.697 40.0597C132.831 39.8807 133.021 39.7216 133.268 39.5824C133.518 39.4403 133.856 39.3693 134.282 39.3693C134.833 39.3693 135.319 39.5071 135.74 39.7827C136.16 40.0582 136.488 40.4489 136.724 40.9545C136.96 41.4602 137.078 42.0568 137.078 42.7443C137.078 43.4375 136.96 44.0384 136.724 44.5469C136.488 45.0526 136.162 45.4446 135.744 45.723C135.326 45.9986 134.845 46.1364 134.299 46.1364C133.879 46.1364 133.542 46.0668 133.289 45.9276C133.037 45.7855 132.842 45.625 132.706 45.446C132.569 45.2642 132.464 45.1136 132.39 44.9943H132.305V48.4545H131.299ZM132.288 42.7273C132.288 43.2216 132.36 43.6577 132.505 44.0355C132.65 44.4105 132.862 44.7045 133.14 44.9176C133.419 45.1278 133.76 45.233 134.163 45.233C134.583 45.233 134.934 45.1222 135.216 44.9006C135.5 44.6761 135.713 44.375 135.855 43.9972C136 43.6165 136.072 43.1932 136.072 42.7273C136.072 42.267 136.001 41.8523 135.859 41.483C135.72 41.1108 135.508 40.8168 135.224 40.6009C134.943 40.3821 134.589 40.2727 134.163 40.2727C133.754 40.2727 133.41 40.3764 133.132 40.5838C132.853 40.7884 132.643 41.0753 132.501 41.4446C132.359 41.8111 132.288 42.2386 132.288 42.7273ZM138.612 48.4545V39.4545H139.583V40.4943H139.703C139.777 40.3807 139.879 40.2358 140.01 40.0597C140.143 39.8807 140.333 39.7216 140.581 39.5824C140.831 39.4403 141.169 39.3693 141.595 39.3693C142.146 39.3693 142.632 39.5071 143.052 39.7827C143.473 40.0582 143.801 40.4489 144.037 40.9545C144.272 41.4602 144.39 42.0568 144.39 42.7443C144.39 43.4375 144.272 44.0384 144.037 44.5469C143.801 45.0526 143.474 45.4446 143.056 45.723C142.639 45.9986 142.157 46.1364 141.612 46.1364C141.191 46.1364 140.855 46.0668 140.602 45.9276C140.349 45.7855 140.154 45.625 140.018 45.446C139.882 45.2642 139.777 45.1136 139.703 44.9943H139.618V48.4545H138.612ZM139.6 42.7273C139.6 43.2216 139.673 43.6577 139.818 44.0355C139.963 44.4105 140.174 44.7045 140.453 44.9176C140.731 45.1278 141.072 45.233 141.475 45.233C141.896 45.233 142.247 45.1222 142.528 44.9006C142.812 44.6761 143.025 44.375 143.167 43.9972C143.312 43.6165 143.385 43.1932 143.385 42.7273C143.385 42.267 143.314 41.8523 143.172 41.483C143.032 41.1108 142.821 40.8168 142.537 40.6009C142.255 40.3821 141.902 40.2727 141.475 40.2727C141.066 40.2727 140.723 40.3764 140.444 40.5838C140.166 40.7884 139.956 41.0753 139.814 41.4446C139.672 41.8111 139.6 42.2386 139.6 42.7273ZM145.924 46V39.4545H146.896V40.4432H146.964C147.083 40.1193 147.299 39.8565 147.612 39.6548C147.924 39.4531 148.277 39.3523 148.669 39.3523C148.743 39.3523 148.835 39.3537 148.946 39.3565C149.056 39.3594 149.14 39.3636 149.197 39.3693V40.392C149.163 40.3835 149.085 40.3707 148.963 40.3537C148.843 40.3338 148.717 40.3239 148.583 40.3239C148.265 40.3239 147.981 40.3906 147.731 40.5241C147.484 40.6548 147.288 40.8366 147.143 41.0696C147.001 41.2997 146.93 41.5625 146.93 41.858V46H145.924ZM152.849 46.1364C152.258 46.1364 151.74 45.9957 151.294 45.7145C150.85 45.4332 150.504 45.0398 150.254 44.5341C150.007 44.0284 149.883 43.4375 149.883 42.7614C149.883 42.0795 150.007 41.4844 150.254 40.9759C150.504 40.4673 150.85 40.0724 151.294 39.7912C151.74 39.5099 152.258 39.3693 152.849 39.3693C153.44 39.3693 153.957 39.5099 154.4 39.7912C154.846 40.0724 155.193 40.4673 155.44 40.9759C155.69 41.4844 155.815 42.0795 155.815 42.7614C155.815 43.4375 155.69 44.0284 155.44 44.5341C155.193 45.0398 154.846 45.4332 154.4 45.7145C153.957 45.9957 153.44 46.1364 152.849 46.1364ZM152.849 45.233C153.298 45.233 153.667 45.1179 153.957 44.8878C154.247 44.6577 154.461 44.3551 154.6 43.9801C154.74 43.6051 154.809 43.1989 154.809 42.7614C154.809 42.3239 154.74 41.9162 154.6 41.5384C154.461 41.1605 154.247 40.8551 153.957 40.6222C153.667 40.3892 153.298 40.2727 152.849 40.2727C152.4 40.2727 152.031 40.3892 151.741 40.6222C151.451 40.8551 151.237 41.1605 151.098 41.5384C150.958 41.9162 150.889 42.3239 150.889 42.7614C150.889 43.1989 150.958 43.6051 151.098 43.9801C151.237 44.3551 151.451 44.6577 151.741 44.8878C152.031 45.1179 152.4 45.233 152.849 45.233ZM162.468 39.4545L160.048 46H159.025L156.604 39.4545H157.695L159.502 44.6705H159.57L161.377 39.4545H162.468ZM165.522 46.1534C165.108 46.1534 164.731 46.0753 164.393 45.919C164.055 45.7599 163.787 45.5312 163.588 45.233C163.389 44.9318 163.289 44.5682 163.289 44.142C163.289 43.767 163.363 43.4631 163.511 43.2301C163.659 42.9943 163.856 42.8097 164.103 42.6761C164.35 42.5426 164.623 42.4432 164.922 42.3778C165.223 42.3097 165.525 42.2557 165.829 42.2159C166.227 42.1648 166.549 42.1264 166.797 42.1009C167.047 42.0724 167.228 42.0256 167.342 41.9602C167.458 41.8949 167.517 41.7812 167.517 41.6193V41.5852C167.517 41.1648 167.402 40.8381 167.172 40.6051C166.944 40.3722 166.599 40.2557 166.136 40.2557C165.656 40.2557 165.279 40.3608 165.007 40.571C164.734 40.7812 164.542 41.0057 164.431 41.2443L163.477 40.9034C163.647 40.5057 163.875 40.196 164.159 39.9744C164.446 39.75 164.758 39.5937 165.096 39.5057C165.437 39.4148 165.772 39.3693 166.102 39.3693C166.312 39.3693 166.554 39.3949 166.826 39.446C167.102 39.4943 167.368 39.5952 167.623 39.7486C167.882 39.902 168.096 40.1335 168.267 40.4432C168.437 40.7528 168.522 41.1676 168.522 41.6875V46H167.517V45.1136H167.466C167.397 45.2557 167.284 45.4077 167.125 45.5696C166.966 45.7315 166.754 45.8693 166.49 45.983C166.225 46.0966 165.903 46.1534 165.522 46.1534ZM165.676 45.25C166.074 45.25 166.409 45.1719 166.681 45.0156C166.957 44.8594 167.164 44.6577 167.304 44.4105C167.446 44.1634 167.517 43.9034 167.517 43.6307V42.7102C167.474 42.7614 167.38 42.8082 167.235 42.8509C167.093 42.8906 166.929 42.9261 166.741 42.9574C166.556 42.9858 166.376 43.0114 166.2 43.0341C166.027 43.054 165.886 43.071 165.778 43.0852C165.517 43.1193 165.272 43.1747 165.045 43.2514C164.821 43.3253 164.639 43.4375 164.5 43.5881C164.363 43.7358 164.295 43.9375 164.295 44.1932C164.295 44.5426 164.424 44.8068 164.683 44.9858C164.944 45.1619 165.275 45.25 165.676 45.25ZM171.364 37.2727V46H170.358V37.2727H171.364ZM179.495 39.4545V40.3068H175.967V39.4545H179.495ZM177.024 46V38.5511C177.024 38.1761 177.112 37.8636 177.288 37.6136C177.464 37.3636 177.693 37.1761 177.974 37.0511C178.255 36.9261 178.552 36.8636 178.865 36.8636C179.112 36.8636 179.314 36.8835 179.47 36.9233C179.626 36.9631 179.743 37 179.819 37.0341L179.529 37.9034C179.478 37.8864 179.407 37.8651 179.316 37.8395C179.228 37.8139 179.112 37.8011 178.967 37.8011C178.635 37.8011 178.395 37.8849 178.247 38.0526C178.102 38.2202 178.029 38.4659 178.029 38.7898V46H177.024ZM180.905 46V39.4545H181.876V40.4432H181.945C182.064 40.1193 182.28 39.8565 182.592 39.6548C182.905 39.4531 183.257 39.3523 183.649 39.3523C183.723 39.3523 183.815 39.3537 183.926 39.3565C184.037 39.3594 184.121 39.3636 184.178 39.3693V40.392C184.143 40.3835 184.065 40.3707 183.943 40.3537C183.824 40.3338 183.697 40.3239 183.564 40.3239C183.246 40.3239 182.962 40.3906 182.712 40.5241C182.464 40.6548 182.268 40.8366 182.124 41.0696C181.982 41.2997 181.911 41.5625 181.911 41.858V46H180.905ZM187.83 46.1364C187.239 46.1364 186.72 45.9957 186.274 45.7145C185.831 45.4332 185.484 45.0398 185.234 44.5341C184.987 44.0284 184.864 43.4375 184.864 42.7614C184.864 42.0795 184.987 41.4844 185.234 40.9759C185.484 40.4673 185.831 40.0724 186.274 39.7912C186.72 39.5099 187.239 39.3693 187.83 39.3693C188.42 39.3693 188.938 39.5099 189.381 39.7912C189.827 40.0724 190.173 40.4673 190.42 40.9759C190.67 41.4844 190.795 42.0795 190.795 42.7614C190.795 43.4375 190.67 44.0284 190.42 44.5341C190.173 45.0398 189.827 45.4332 189.381 45.7145C188.938 45.9957 188.42 46.1364 187.83 46.1364ZM187.83 45.233C188.278 45.233 188.648 45.1179 188.938 44.8878C189.227 44.6577 189.442 44.3551 189.581 43.9801C189.72 43.6051 189.79 43.1989 189.79 42.7614C189.79 42.3239 189.72 41.9162 189.581 41.5384C189.442 41.1605 189.227 40.8551 188.938 40.6222C188.648 40.3892 188.278 40.2727 187.83 40.2727C187.381 40.2727 187.011 40.3892 186.722 40.6222C186.432 40.8551 186.217 41.1605 186.078 41.5384C185.939 41.9162 185.869 42.3239 185.869 42.7614C185.869 43.1989 185.939 43.6051 186.078 43.9801C186.217 44.3551 186.432 44.6577 186.722 44.8878C187.011 45.1179 187.381 45.233 187.83 45.233ZM192.331 46V39.4545H193.302V40.4773H193.387C193.524 40.1278 193.744 39.8565 194.048 39.6634C194.352 39.4673 194.717 39.3693 195.143 39.3693C195.575 39.3693 195.934 39.4673 196.221 39.6634C196.511 39.8565 196.737 40.1278 196.899 40.4773H196.967C197.135 40.1392 197.386 39.8707 197.721 39.6719C198.056 39.4702 198.458 39.3693 198.927 39.3693C199.512 39.3693 199.991 39.5526 200.363 39.919C200.735 40.2827 200.922 40.8494 200.922 41.6193V46H199.916V41.6193C199.916 41.1364 199.784 40.7912 199.52 40.5838C199.255 40.3764 198.944 40.2727 198.586 40.2727C198.126 40.2727 197.77 40.4119 197.517 40.6903C197.264 40.9659 197.137 41.3153 197.137 41.7386V46H196.115V41.517C196.115 41.1449 195.994 40.8452 195.752 40.6179C195.511 40.3878 195.2 40.2727 194.819 40.2727C194.558 40.2727 194.314 40.3423 194.086 40.4815C193.862 40.6207 193.68 40.8139 193.541 41.0611C193.404 41.3054 193.336 41.5881 193.336 41.9091V46H192.331ZM208.061 46.1534C207.647 46.1534 207.27 46.0753 206.932 45.919C206.594 45.7599 206.326 45.5312 206.127 45.233C205.928 44.9318 205.828 44.5682 205.828 44.142C205.828 43.767 205.902 43.4631 206.05 43.2301C206.198 42.9943 206.395 42.8097 206.642 42.6761C206.89 42.5426 207.162 42.4432 207.461 42.3778C207.762 42.3097 208.064 42.2557 208.368 42.2159C208.766 42.1648 209.088 42.1264 209.336 42.1009C209.586 42.0724 209.767 42.0256 209.881 41.9602C209.998 41.8949 210.056 41.7812 210.056 41.6193V41.5852C210.056 41.1648 209.941 40.8381 209.711 40.6051C209.483 40.3722 209.138 40.2557 208.675 40.2557C208.195 40.2557 207.819 40.3608 207.546 40.571C207.273 40.7812 207.081 41.0057 206.971 41.2443L206.016 40.9034C206.186 40.5057 206.414 40.196 206.698 39.9744C206.985 39.75 207.297 39.5937 207.635 39.5057C207.976 39.4148 208.311 39.3693 208.641 39.3693C208.851 39.3693 209.093 39.3949 209.365 39.446C209.641 39.4943 209.907 39.5952 210.162 39.7486C210.421 39.902 210.635 40.1335 210.806 40.4432C210.976 40.7528 211.061 41.1676 211.061 41.6875V46H210.056V45.1136H210.005C209.936 45.2557 209.823 45.4077 209.664 45.5696C209.505 45.7315 209.293 45.8693 209.029 45.983C208.765 46.0966 208.442 46.1534 208.061 46.1534ZM208.215 45.25C208.613 45.25 208.948 45.1719 209.221 45.0156C209.496 44.8594 209.703 44.6577 209.843 44.4105C209.985 44.1634 210.056 43.9034 210.056 43.6307V42.7102C210.013 42.7614 209.919 42.8082 209.775 42.8509C209.632 42.8906 209.468 42.9261 209.28 42.9574C209.096 42.9858 208.915 43.0114 208.739 43.0341C208.566 43.054 208.425 43.071 208.317 43.0852C208.056 43.1193 207.811 43.1747 207.584 43.2514C207.36 43.3253 207.178 43.4375 207.039 43.5881C206.902 43.7358 206.834 43.9375 206.834 44.1932C206.834 44.5426 206.963 44.8068 207.222 44.9858C207.483 45.1619 207.814 45.25 208.215 45.25ZM213.903 37.2727V46H212.897V37.2727H213.903ZM216.75 37.2727V46H215.745V37.2727H216.75ZM221.967 48.4545V39.4545H222.939V40.4943H223.058C223.132 40.3807 223.234 40.2358 223.365 40.0597C223.499 39.8807 223.689 39.7216 223.936 39.5824C224.186 39.4403 224.524 39.3693 224.95 39.3693C225.501 39.3693 225.987 39.5071 226.408 39.7827C226.828 40.0582 227.156 40.4489 227.392 40.9545C227.628 41.4602 227.746 42.0568 227.746 42.7443C227.746 43.4375 227.628 44.0384 227.392 44.5469C227.156 45.0526 226.83 45.4446 226.412 45.723C225.994 45.9986 225.513 46.1364 224.967 46.1364C224.547 46.1364 224.21 46.0668 223.957 45.9276C223.705 45.7855 223.51 45.625 223.374 45.446C223.237 45.2642 223.132 45.1136 223.058 44.9943H222.973V48.4545H221.967ZM222.956 42.7273C222.956 43.2216 223.028 43.6577 223.173 44.0355C223.318 44.4105 223.53 44.7045 223.808 44.9176C224.087 45.1278 224.428 45.233 224.831 45.233C225.251 45.233 225.602 45.1222 225.884 44.9006C226.168 44.6761 226.381 44.375 226.523 43.9972C226.668 43.6165 226.74 43.1932 226.74 42.7273C226.74 42.267 226.669 41.8523 226.527 41.483C226.388 41.1108 226.176 40.8168 225.892 40.6009C225.611 40.3821 225.257 40.2727 224.831 40.2727C224.422 40.2727 224.078 40.3764 223.8 40.5838C223.521 40.7884 223.311 41.0753 223.169 41.4446C223.027 41.8111 222.956 42.2386 222.956 42.7273ZM231.939 46.1364C231.348 46.1364 230.83 45.9957 230.384 45.7145C229.94 45.4332 229.594 45.0398 229.344 44.5341C229.097 44.0284 228.973 43.4375 228.973 42.7614C228.973 42.0795 229.097 41.4844 229.344 40.9759C229.594 40.4673 229.94 40.0724 230.384 39.7912C230.83 39.5099 231.348 39.3693 231.939 39.3693C232.53 39.3693 233.047 39.5099 233.49 39.7912C233.936 40.0724 234.283 40.4673 234.53 40.9759C234.78 41.4844 234.905 42.0795 234.905 42.7614C234.905 43.4375 234.78 44.0284 234.53 44.5341C234.283 45.0398 233.936 45.4332 233.49 45.7145C233.047 45.9957 232.53 46.1364 231.939 46.1364ZM231.939 45.233C232.388 45.233 232.757 45.1179 233.047 44.8878C233.337 44.6577 233.551 44.3551 233.69 43.9801C233.83 43.6051 233.899 43.1989 233.899 42.7614C233.899 42.3239 233.83 41.9162 233.69 41.5384C233.551 41.1605 233.337 40.8551 233.047 40.6222C232.757 40.3892 232.388 40.2727 231.939 40.2727C231.49 40.2727 231.121 40.3892 230.831 40.6222C230.541 40.8551 230.327 41.1605 230.188 41.5384C230.048 41.9162 229.979 42.3239 229.979 42.7614C229.979 43.1989 230.048 43.6051 230.188 43.9801C230.327 44.3551 230.541 44.6577 230.831 44.8878C231.121 45.1179 231.49 45.233 231.939 45.233ZM237.446 37.2727V46H236.44V37.2727H237.446ZM240.293 37.2727V46H239.288V37.2727H240.293ZM246.772 40.9205L245.868 41.1761C245.811 41.0256 245.728 40.8793 245.617 40.7372C245.509 40.5923 245.361 40.473 245.174 40.3793C244.986 40.2855 244.746 40.2386 244.453 40.2386C244.053 40.2386 243.719 40.331 243.452 40.5156C243.188 40.6974 243.056 40.929 243.056 41.2102C243.056 41.4602 243.147 41.6577 243.328 41.8026C243.51 41.9474 243.794 42.0682 244.181 42.1648L245.152 42.4034C245.738 42.5455 246.174 42.7628 246.461 43.0554C246.748 43.3452 246.891 43.7187 246.891 44.1761C246.891 44.5511 246.783 44.8864 246.567 45.1818C246.354 45.4773 246.056 45.7102 245.672 45.8807C245.289 46.0511 244.843 46.1364 244.334 46.1364C243.667 46.1364 243.114 45.9915 242.676 45.7017C242.239 45.4119 241.962 44.9886 241.846 44.4318L242.8 44.1932C242.891 44.5455 243.063 44.8097 243.316 44.9858C243.571 45.1619 243.905 45.25 244.317 45.25C244.786 45.25 245.158 45.1506 245.434 44.9517C245.712 44.75 245.851 44.5085 245.851 44.2273C245.851 44 245.772 43.8097 245.613 43.6562C245.453 43.5 245.209 43.3835 244.88 43.3068L243.789 43.0511C243.189 42.9091 242.749 42.6889 242.468 42.3906C242.189 42.0895 242.05 41.7131 242.05 41.2614C242.05 40.892 242.154 40.5653 242.361 40.2812C242.571 39.9972 242.857 39.7741 243.218 39.6122C243.581 39.4503 243.993 39.3693 244.453 39.3693C245.101 39.3693 245.61 39.5114 245.979 39.7955C246.351 40.0795 246.615 40.4545 246.772 40.9205Z" fill="#969696"/>
</svg>
