<svg width="256" height="256" viewBox="0 0 256 256" fill="none" xmlns="http://www.w3.org/2000/svg">
<path d="M210.017 10.5049H45.9831C26.3841 10.5049 10.4961 26.3929 10.4961 45.9919V210.007C10.4961 229.606 26.3841 245.493 45.9831 245.493H210.016C229.615 245.493 245.503 229.605 245.503 210.007V45.9929C245.504 26.3939 229.615 10.5049 210.017 10.5049Z" fill="#606060"/>
<path opacity="0.7811" d="M183.414 20.5508H72.5849C43.2479 20.5508 19.6299 44.3608 19.6299 73.9358V182.063C20.5799 205.15 24.2329 190.554 31.1849 164.988C39.2659 135.275 65.5809 109.306 97.6299 89.8428C122.091 74.9878 149.47 65.5018 199.309 64.5988C227.574 64.0878 225.079 27.9158 183.414 20.5508Z" fill="url(#paint0_linear_219_2)"/>
<path d="M81.604 207.761V101.49H46.2843V207.761H81.604ZM63.9508 86.9798C76.2592 86.9798 83.932 78.819 83.932 68.6195C83.7038 58.1939 76.2592 50.2592 64.182 50.2592C52.0947 50.2592 44.1978 58.1939 44.1978 68.6195C44.1978 78.819 51.8604 86.9798 63.7175 86.9798H63.9508Z" fill="white"/>
<path d="M101.151 207.761H136.477V148.415C136.477 145.237 136.707 142.063 137.642 139.794C140.189 133.444 146.005 126.874 155.76 126.874C168.544 126.874 173.653 136.622 173.653 150.906V207.761H208.972V146.825C208.972 114.183 191.55 98.9948 168.307 98.9948C149.254 98.9948 140.886 109.642 136.239 116.897H136.477V101.49H101.151C101.62 111.46 101.151 207.761 101.151 207.761Z" fill="white"/>
<defs>
<linearGradient id="paint0_linear_219_2" x1="70.2644" y1="-24.0349" x2="100.843" y2="65.0976" gradientUnits="userSpaceOnUse">
<stop stop-color="white"/>
<stop offset="1" stop-color="white" stop-opacity="0"/>
</linearGradient>
</defs>
</svg>
