<svg width="236" height="235" viewBox="0 0 236 235" fill="none" xmlns="http://www.w3.org/2000/svg">
<path d="M199.521 0H35.487C15.888 0 0 15.888 0 35.487V199.502C0 219.101 15.888 234.988 35.487 234.988H199.52C219.119 234.988 235.007 219.1 235.007 199.502V35.488C235.008 15.889 219.119 0 199.521 0Z" fill="black"/>
<path opacity="0.7811" d="M172.918 10.046H62.089C32.752 10.046 9.134 33.856 9.134 63.431V171.558C10.084 194.645 13.737 180.049 20.689 154.483C28.77 124.77 55.085 98.801 87.134 79.338C111.595 64.483 138.974 54.997 188.813 54.094C217.078 53.583 214.583 17.411 172.918 10.046Z" fill="url(#paint0_linear_603_15)"/>
<path d="M71.1081 197.256V90.9849H35.7884V197.256H71.1081ZM53.4549 76.4747C65.7633 76.4747 73.4361 68.3139 73.4361 58.1145C73.2079 47.6888 65.7633 39.7542 53.6861 39.7542C41.5988 39.7542 33.7018 47.6888 33.7018 58.1145C33.7018 68.3139 41.3644 76.4747 53.2216 76.4747H53.4549Z" fill="white"/>
<path d="M90.6553 197.256H125.981V137.91C125.981 134.732 126.211 131.558 127.146 129.289C129.693 122.939 135.509 116.369 145.264 116.369C158.048 116.369 163.157 126.117 163.157 140.401V197.256H198.476V136.32C198.476 103.677 181.054 88.4898 157.811 88.4898C138.758 88.4898 130.39 99.1365 125.743 106.392H125.981V90.9849H90.6553C91.1239 100.955 90.6553 197.256 90.6553 197.256Z" fill="white"/>
<defs>
<linearGradient id="paint0_linear_603_15" x1="59.7685" y1="-34.5397" x2="90.347" y2="54.5928" gradientUnits="userSpaceOnUse">
<stop stop-color="white"/>
<stop offset="1" stop-color="white" stop-opacity="0"/>
</linearGradient>
</defs>
</svg>
